HIERARCHY
ROOT joint_Root
{
	OFFSET 0.0 0.0 0.0
	CHANNELS 6 Xposition Yposition Zposition Zrotation Xrotation Yrotation 
	JOINT Hips
	{
		OFFSET 4.5925 91.4895 -427.239
		CHANNELS 6 Xposition Yposition Zposition Zrotation Xrotation Yrotation 
		JOINT Spine
		{
			OFFSET 15.7357 0.0 0.0
			CHANNELS 6 Xposition Yposition Zposition Zrotation Xrotation Yrotation 
			JOINT Chest
			{
				OFFSET 8.98455 -0.406207 0.0
				CHANNELS 6 Xposition Yposition Zposition Zrotation Xrotation Yrotation 
				JOINT Neck
				{
					OFFSET 16.3773 0.0 0.0
					CHANNELS 6 Xposition Yposition Zposition Zrotation Xrotation Yrotation 
					JOINT Head
					{
						OFFSET 6.45672 0.0 0.0
						CHANNELS 6 Xposition Yposition Zposition Zrotation Xrotation Yrotation 
						End Site
						{
							OFFSET 0.0 0.0 0.0
						}
					}
				}
				JOINT Shoulder_L
				{
					OFFSET 12.9942 -0.242716 4.98039
					CHANNELS 6 Xposition Yposition Zposition Zrotation Xrotation Yrotation 
					JOINT UpperArm_L
					{
						OFFSET 5.34809 0.0 0.0
						CHANNELS 6 Xposition Yposition Zposition Zrotation Xrotation Yrotation 
						JOINT LowerArm_L
						{
							OFFSET 24.3286 1.87007e-05 0.0
							CHANNELS 6 Xposition Yposition Zposition Zrotation Xrotation Yrotation 
							JOINT Hand_L
							{
								OFFSET 22.2916 0.0 0.0
								CHANNELS 6 Xposition Yposition Zposition Zrotation Xrotation Yrotation 
								End Site
								{
									OFFSET 0.0 0.0 0.0
								}
							}
						}
					}
				}
				JOINT Shoulder_R
				{
					OFFSET 12.9945 -0.242716 -4.98039
					CHANNELS 6 Xposition Yposition Zposition Zrotation Xrotation Yrotation 
					JOINT UpperArm_R
					{
						OFFSET -5.34813 0.0 0.0
						CHANNELS 6 Xposition Yposition Zposition Zrotation Xrotation Yrotation 
						JOINT LowerArm_R
						{
							OFFSET -24.3289 0.000322201 0.0
							CHANNELS 6 Xposition Yposition Zposition Zrotation Xrotation Yrotation 
							JOINT Hand_R
							{
								OFFSET -22.2915 -0.000108084 0.0
								CHANNELS 6 Xposition Yposition Zposition Zrotation Xrotation Yrotation 
								End Site
								{
									OFFSET 0.0 0.0 0.0
								}
							}
						}
					}
				}
			}
		}
		JOINT UpperLeg_L
		{
			OFFSET -2.19248 -6.46944 0.0
			CHANNELS 6 Xposition Yposition Zposition Zrotation Xrotation Yrotation 
			JOINT LowerLeg_L
			{
				OFFSET 39.0811 0.0 -1.23785e-05
				CHANNELS 6 Xposition Yposition Zposition Zrotation Xrotation Yrotation 
				JOINT Foot_L
				{
					OFFSET 40.9854 0.0 -1.26872e-05
					CHANNELS 6 Xposition Yposition Zposition Zrotation Xrotation Yrotation 
					JOINT Toes_L
					{
						OFFSET 11.7543 0.0 0.0
						CHANNELS 6 Xposition Yposition Zposition Zrotation Xrotation Yrotation 
						End Site
						{
							OFFSET 0.0 0.0 0.0
						}
					}
				}
			}
		}
		JOINT UpperLeg_R
		{
			OFFSET -2.19251 6.46944 0.0
			CHANNELS 6 Xposition Yposition Zposition Zrotation Xrotation Yrotation 
			JOINT LowerLeg_R
			{
				OFFSET -39.0811 -0.00228153 -0.0401928
				CHANNELS 6 Xposition Yposition Zposition Zrotation Xrotation Yrotation 
				JOINT Foot_R
				{
					OFFSET -40.9854 0.0 0.0
					CHANNELS 6 Xposition Yposition Zposition Zrotation Xrotation Yrotation 
					JOINT Toes_R
					{
						OFFSET -11.7543 0.0 0.0
						CHANNELS 6 Xposition Yposition Zposition Zrotation Xrotation Yrotation 
						End Site
						{
							OFFSET 0.0 0.0 0.0
						}
					}
				}
			}
		}
	}
}
MOTION
Frames:	7
Frame Time:	0.0333333
0.000000 0.000000 0.000000 0.000000 0.000000 -0.000000 -1.823940 92.276800 1.109720 88.671800 -1.661080 1.887090 15.735700 0.000005 -0.000001 71.475800 87.350400 -71.221300 8.984550 -0.406207 -0.000000 -2.738090 -1.706290 0.468183 16.377300 -0.000001 -0.000001 5.030740 -2.554820 1.955150 6.456720 -0.000001 -0.000000 -2.314830 -1.755020 1.565240 12.994200 -0.242716 4.980390 -82.866100 -12.246600 -59.457900 5.348090 -0.000007 -0.000001 -69.845900 -64.434600 -112.944000 24.328600 0.000019 0.000005 8.136220 7.610860 -47.189500 22.291600 -0.000001 0.000005 17.136300 5.327110 -0.701522 12.994500 -0.242716 -4.980390 95.584700 -12.102900 -64.997200 -5.348130 -0.000001 -0.000004 -50.747000 -68.993100 -93.184400 -24.328900 0.000322 -0.000009 -4.792090 -4.849480 -44.752700 -22.291500 -0.000108 -0.000004 22.784800 5.561340 -9.253040 -2.192480 -6.469440 -0.000000 -174.128000 -14.517200 -3.244300 39.081100 -0.000007 -0.000012 -0.102672 0.259816 21.562600 40.985400 -0.000006 -0.000013 -0.548583 9.251300 -66.047000 11.754300 -0.000000 0.000003 -0.000126 -0.001254 -16.625400 -2.192510 6.469440 -0.000001 177.948000 24.395500 177.419000 -39.081100 -0.002282 -0.040193 0.009672 -0.016068 21.575600 -40.985400 0.000008 0.000006 6.957600 15.785500 -67.380500 -11.754300 -0.000006 -0.000006 -0.107528 -0.145400 -17.401100
0.000000 0.000000 0.000000 0.000000 0.000000 -0.000000 -1.775600 92.288000 1.105510 88.669400 -1.590970 1.897830 15.735700 0.000005 -0.000001 72.346300 87.266600 -72.071900 8.984550 -0.406207 -0.000000 -2.553130 -1.682000 0.511350 16.377300 -0.000001 -0.000001 4.969590 -2.515450 1.946320 6.456720 -0.000001 -0.000000 -2.480520 -1.635300 1.644140 12.994200 -0.242716 4.980390 -83.174500 -11.734500 -59.521700 5.348090 -0.000007 -0.000001 -67.511400 -64.105300 -109.208000 24.328600 0.000019 0.000005 7.493600 6.303260 -50.153700 22.291600 -0.000001 0.000005 16.928900 5.332910 -0.870278 12.994500 -0.242716 -4.980390 95.376600 -11.695600 -65.095000 -5.348130 -0.000001 -0.000004 -47.355300 -68.455100 -88.976400 -24.328900 0.000322 -0.000009 -5.030970 -4.742050 -46.792500 -22.291500 -0.000108 -0.000004 22.693300 5.556010 -8.993190 -2.192480 -6.469440 -0.000000 -174.172000 -14.434500 -3.235450 39.081100 -0.000007 -0.000012 -0.101520 0.257524 21.515200 40.985400 -0.000006 -0.000013 -0.521735 9.211450 -66.014300 11.754300 -0.000000 0.000003 -0.000142 -0.001387 -16.630400 -2.192510 6.469440 -0.000001 177.916000 24.427100 177.519000 -39.081100 -0.002282 -0.040193 0.009535 -0.015852 21.413300 -40.985400 0.000008 0.000006 6.951290 15.773100 -67.370400 -11.754300 -0.000006 -0.000006 -0.043020 -0.068955 -17.382700
0.000000 0.000000 0.000000 0.000000 0.000000 -0.000000 -1.739020 92.283200 1.102430 88.603400 -1.506110 1.976550 15.735700 0.000005 -0.000001 73.351200 87.153400 -73.029200 8.984550 -0.406207 -0.000000 -2.307220 -1.658910 0.610622 16.377300 -0.000001 -0.000001 4.942420 -2.438270 1.990080 6.456720 -0.000001 -0.000000 -2.769580 -1.453980 1.697390 12.994200 -0.242716 4.980390 -83.593100 -11.175000 -59.912400 5.348090 -0.000007 -0.000001 -62.317900 -63.875200 -101.487000 24.328600 0.000019 0.000005 6.944950 4.888540 -55.029700 22.291600 -0.000001 0.000005 16.873800 5.348060 -1.318990 12.994500 -0.242716 -4.980390 95.105500 -11.214400 -65.326200 -5.348130 -0.000001 -0.000004 -42.062500 -67.183700 -82.104500 -24.328900 0.000322 -0.000009 -5.287710 -4.428500 -50.156400 -22.291500 -0.000108 -0.000004 22.781000 5.555020 -8.945360 -2.192480 -6.469440 -0.000000 -174.135000 -14.238200 -3.227130 39.081100 -0.000007 -0.000012 -0.100982 0.254712 21.626200 40.985400 -0.000006 -0.000013 -0.500669 9.113700 -66.073400 11.754300 -0.000000 0.000003 -0.000153 -0.001479 -16.633700 -2.192510 6.469440 -0.000001 177.885000 24.612200 177.771000 -39.081100 -0.002282 -0.040193 0.009085 -0.014880 21.180500 -40.985400 0.000008 0.000006 6.843940 15.884900 -67.402200 -11.754300 -0.000006 -0.000006 -0.001303 -0.019623 -17.371100
0.000000 0.000000 0.000000 0.000000 0.000000 -0.000000 -1.700980 92.285100 1.080500 88.536700 -1.489710 2.105320 15.735700 0.000005 -0.000001 74.325800 86.996500 -73.940800 8.984550 -0.406207 -0.000000 -1.976990 -1.655200 0.741387 16.377300 -0.000001 -0.000001 4.784040 -2.356070 2.119910 6.456720 -0.000001 -0.000000 -3.132170 -1.235010 1.655500 12.994200 -0.242716 4.980390 -84.122000 -10.433100 -60.381000 5.348090 -0.000007 -0.000001 -54.794200 -62.989000 -90.363600 24.328600 0.000019 0.000005 6.565180 3.557460 -61.675900 22.291600 -0.000001 0.000005 16.869100 5.357890 -1.615520 12.994500 -0.242716 -4.980390 94.719600 -10.549700 -65.728500 -5.348130 -0.000001 -0.000004 -36.159800 -64.828300 -73.963100 -24.328900 0.000322 -0.000009 -5.366730 -3.812310 -54.706100 -22.291500 -0.000108 -0.000004 23.081300 5.552300 -8.815570 -2.192480 -6.469440 -0.000000 -174.060000 -14.221100 -3.149820 39.081100 -0.000007 -0.000012 -0.104071 0.261573 21.695900 40.985400 -0.000006 -0.000013 -0.471084 9.113410 -66.094300 11.754300 -0.000000 0.000003 -0.000140 -0.001370 -16.629700 -2.192510 6.469440 -0.000001 177.800000 24.991800 178.076000 -39.081100 -0.002282 -0.040193 0.008529 -0.013624 20.925400 -40.985400 0.000008 0.000006 6.866550 16.272700 -67.458600 -11.754300 -0.000006 -0.000006 -0.001169 -0.017787 -17.296400
0.000000 0.000000 0.000000 0.000000 0.000000 -0.000000 -1.650470 92.290500 1.062720 88.493500 -1.540590 2.286820 15.735700 0.000005 -0.000001 75.652100 86.845900 -75.204800 8.984550 -0.406207 -0.000000 -1.648340 -1.599620 0.871381 16.377300 -0.000001 -0.000001 4.511380 -2.205690 2.247590 6.456720 -0.000001 -0.000000 -3.294480 -1.119780 1.624320 12.994200 -0.242716 4.980390 -84.838900 -9.441580 -61.163200 5.348090 -0.000007 -0.000001 -45.899500 -60.770100 -77.017600 24.328600 0.000019 0.000005 6.227990 2.333460 -69.544200 22.291600 -0.000001 0.000005 16.595200 5.362170 -1.745790 12.994500 -0.242716 -4.980390 94.071500 -9.388660 -66.426700 -5.348130 -0.000001 -0.000004 -29.990700 -61.287500 -65.349000 -24.328900 0.000322 -0.000009 -5.358210 -3.093500 -60.084200 -22.291500 -0.000108 -0.000004 22.917100 5.542790 -8.369290 -2.192480 -6.469440 -0.000000 -174.000000 -14.244500 -2.968470 39.081100 -0.000007 -0.000012 -0.105289 0.264465 21.708500 40.985400 -0.000006 -0.000013 -0.437520 9.109020 -66.104600 11.754300 -0.000000 0.000003 -0.000152 -0.001472 -16.633500 -2.192510 6.469440 -0.000001 177.656000 25.337600 178.452000 -39.081100 -0.002282 -0.040193 0.007939 -0.012257 20.646700 -40.985400 0.000008 0.000006 6.909800 16.696900 -67.526700 -11.754300 -0.000006 -0.000006 -0.001042 -0.016006 -17.224100
0.000000 0.000000 0.000000 0.000000 0.000000 -0.000000 -1.607310 92.296000 1.014850 88.453300 -1.610230 2.444010 15.735700 0.000005 -0.000001 76.820800 86.705200 -76.311400 8.984550 -0.406207 -0.000000 -1.343100 -1.542560 1.000510 16.377300 -0.000001 -0.000001 4.141410 -2.008980 2.231830 6.456720 -0.000001 -0.000000 -3.442590 -1.192010 1.737860 12.994200 -0.242716 4.980390 -85.670600 -8.249490 -62.183400 5.348090 -0.000007 -0.000001 -37.934000 -56.639500 -63.616300 24.328600 0.000019 0.000005 6.553530 1.413550 -77.875700 22.291600 -0.000001 0.000005 16.089400 5.356890 -1.584600 12.994500 -0.242716 -4.980390 93.257200 -7.747520 -67.113800 -5.348130 -0.000001 -0.000004 -25.542400 -56.271200 -58.100900 -24.328900 0.000322 -0.000009 -5.019460 -2.256170 -65.849300 -22.291500 -0.000108 -0.000004 22.556000 5.529590 -7.775630 -2.192480 -6.469440 -0.000000 -173.969000 -14.235300 -2.844860 39.081100 -0.000007 -0.000012 -0.103557 0.259677 21.741800 40.985400 -0.000006 -0.000013 -0.410242 9.030660 -66.104700 11.754300 -0.000000 0.000003 -0.000150 -0.001451 -16.632700 -2.192510 6.469440 -0.000001 177.539000 25.657300 178.815000 -39.081100 -0.002282 -0.040193 0.007296 -0.010740 20.311100 -40.985400 0.000008 0.000006 6.937800 17.089300 -67.602300 -11.754300 -0.000006 -0.000006 -0.000950 -0.014688 -17.170500
0.000000 0.000000 0.000000 0.000000 0.000000 -0.000000 -1.562000 92.296600 0.960877 88.481500 -1.689330 2.587970 15.735700 0.000005 -0.000001 77.732400 86.599800 -77.188100 8.984550 -0.406207 -0.000000 -1.113690 -1.486790 1.073840 16.377300 -0.000001 -0.000001 3.910860 -1.849170 2.118660 6.456720 -0.000001 -0.000000 -3.676490 -1.237620 1.852940 12.994200 -0.242716 4.980390 -86.644300 -6.816980 -63.714800 5.348090 -0.000007 -0.000001 -31.115400 -50.427400 -50.642300 24.328600 0.000019 0.000005 7.276730 0.581542 -85.449200 22.291600 -0.000001 0.000005 15.805200 5.349510 -1.362540 12.994500 -0.242716 -4.980390 92.374500 -6.045540 -68.512600 -5.348130 -0.000001 -0.000004 -21.554300 -50.040900 -50.210600 -24.328900 0.000322 -0.000009 -5.675630 -1.847750 -72.019300 -22.291500 -0.000108 -0.000004 21.680200 5.517800 -7.265830 -2.192480 -6.469440 -0.000000 -174.007000 -14.188600 -2.731600 39.081100 -0.000007 -0.000012 -0.106154 0.266022 21.754100 40.985400 -0.000006 -0.000013 -0.399300 8.910410 -66.088600 11.754300 -0.000000 0.000003 -0.000177 -0.001667 -16.640600 -2.192510 6.469440 -0.000001 177.322000 25.935400 179.109000 -39.081100 -0.002282 -0.040193 -0.001746 0.013872 20.066300 -40.985400 0.000008 0.000006 6.682780 17.523400 -67.587200 -11.754300 -0.000006 -0.000006 -0.000764 -0.011990 -17.060900
